HIERARCHY
ROOT Hips
{
	OFFSET 0.000000 0.000000 0.000000
	CHANNELS 6 Xposition Yposition Zposition Zrotation Yrotation Xrotation 
	JOINT LHipJoint
	{
		OFFSET 0.000000 0.000000 0.000000
		CHANNELS 3 Zrotation Yrotation Xrotation
		JOINT LeftUpLeg
		{
			OFFSET 1.363060 -1.794630 0.839290
			CHANNELS 3 Zrotation Yrotation Xrotation
			JOINT LeftLeg
			{
				OFFSET 2.448110 -6.726130 0.000000
				CHANNELS 3 Zrotation Yrotation Xrotation
				JOINT LeftFoot
				{
					OFFSET 2.562200 -7.039590 0.000000
					CHANNELS 3 Zrotation Yrotation Xrotation
					JOINT LeftToeBase
					{
						OFFSET 0.157640 -0.433110 2.322550
						CHANNELS 3 Zrotation Yrotation Xrotation
						End Site
						{
							OFFSET 0.000000 0.000000 0.000000
						}
					}
				}
			}
		}
	}
	JOINT RHipJoint
	{
		OFFSET 0.000000 0.000000 0.000000
		CHANNELS 3 Zrotation Yrotation Xrotation
		JOINT RightUpLeg
		{
			OFFSET -1.305520 -1.794630 0.839290
			CHANNELS 3 Zrotation Yrotation Xrotation
			JOINT RightLeg
			{
				OFFSET -2.542530 -6.985550 0.000000
				CHANNELS 3 Zrotation Yrotation Xrotation
				JOINT RightFoot
				{
					OFFSET -2.568260 -7.056230 0.000000
					CHANNELS 3 Zrotation Yrotation Xrotation
					JOINT RightToeBase
					{
						OFFSET -0.164730 -0.452590 2.363150
						CHANNELS 3 Zrotation Yrotation Xrotation
						End Site
						{
							OFFSET 0.000000 0.000000 0.000000
						}
					}
				}
			}
		}
	}
	JOINT LowerBack
	{
		OFFSET 0.000000 0.000000 0.000000
		CHANNELS 3 Zrotation Yrotation Xrotation
		JOINT Spine
		{
			OFFSET 0.028270 2.035590 -0.193380
			CHANNELS 3 Zrotation Yrotation Xrotation
			JOINT Spine1
			{
				OFFSET 0.056720 2.048850 -0.042750
				CHANNELS 3 Zrotation Yrotation Xrotation
				JOINT Neck
				{
					OFFSET 0.000000 0.000000 0.000000
					CHANNELS 3 Zrotation Yrotation Xrotation
					JOINT Neck1
					{
						OFFSET -0.054170 1.746240 0.172020
						CHANNELS 3 Zrotation Yrotation Xrotation
						JOINT Head
						{
							OFFSET 0.104070 1.761360 -0.123970
							CHANNELS 3 Zrotation Yrotation Xrotation
							End Site
							{
								OFFSET 0.000000 0.000000 0.000000
							}
						}
					}
				}
				JOINT LeftShoulder
				{
					OFFSET 0.000000 0.000000 0.000000
					CHANNELS 3 Zrotation Yrotation Xrotation
					JOINT LeftArm
					{
						OFFSET 3.362410 1.200890 -0.311210
						CHANNELS 3 Zrotation Yrotation Xrotation
						JOINT LeftForeArm
						{
							OFFSET 4.983000 -0.000000 -0.000000
							CHANNELS 3 Zrotation Yrotation Xrotation
							JOINT LeftHand
							{
								OFFSET 3.483560 -0.000000 -0.000000
								CHANNELS 3 Zrotation Yrotation Xrotation
								JOINT LeftFingerBase
								{
									OFFSET 0.000000 0.000000 0.000000
									CHANNELS 3 Zrotation Yrotation Xrotation
									JOINT LeftHandIndex1
									{
										OFFSET 0.715260 -0.000000 -0.000000
										CHANNELS 3 Zrotation Yrotation Xrotation
										End Site
										{
											OFFSET 0.000000 0.000000 0.000000
										}
									}
								}
								JOINT LThumb
								{
									OFFSET 0.000000 0.000000 0.000000
									CHANNELS 3 Zrotation Yrotation Xrotation
									End Site
									{
										OFFSET 0.000000 0.000000 0.000000
									}
								}
							}
						}
					}
				}
				JOINT RightShoulder
				{
					OFFSET 0.000000 0.000000 0.000000
					CHANNELS 3 Zrotation Yrotation Xrotation
					JOINT RightArm
					{
						OFFSET -3.136600 1.374050 -0.404650
						CHANNELS 3 Zrotation Yrotation Xrotation
						JOINT RightForeArm
						{
							OFFSET -5.241900 -0.000000 -0.000000
							CHANNELS 3 Zrotation Yrotation Xrotation
							JOINT RightHand
							{
								OFFSET -3.444170 -0.000000 -0.000000
								CHANNELS 3 Zrotation Yrotation Xrotation
								JOINT RightFingerBase
								{
									OFFSET 0.000000 0.000000 0.000000
									CHANNELS 3 Zrotation Yrotation Xrotation
									JOINT RightHandIndex1
									{
										OFFSET -0.622530 -0.000000 -0.000000
										CHANNELS 3 Zrotation Yrotation Xrotation
										End Site
										{
											OFFSET 0.000000 0.000000 0.000000
										}
									}
								}
								JOINT RThumb
								{
									OFFSET 0.000000 0.000000 0.000000
									CHANNELS 3 Zrotation Yrotation Xrotation
									End Site
									{
										OFFSET 0.000000 0.000000 0.000000
									}
								}
							}
						}
					}
				}
			}
		}
	}
}
MOTION
Frames: 9
Frame Time: 0.008333
-14.828471 17.832530 0.304020 -30.966219 77.677114 -19.122085 0.118104 3.830092 1.269848 -12.349781 -3.454591 -9.812060 -0.459780 3.675838 11.675246 -0.530898 6.820258 -16.301601 2.241900 9.352800 26.905200 -5.840532 -4.221501 -0.764661 31.819721 15.325300 -8.484645 -1.013023 -3.682541 15.249291 -0.062284 -0.823591 -7.436488 -0.086000 1.891700 -5.206500 8.771725 2.267027 -0.574777 1.852247 2.897748 -4.713127 -5.609342 1.291120 -1.178547 1.767779 -23.596744 -23.132799 -3.377701 -34.242853 35.551500 -7.668600 -13.549700 15.778300 -6.183632 -13.316735 1.322661 -80.793581 -1.046283 22.049056 16.322582 -25.527655 -7.411512 -2.924868 -0.407506 -8.256628 26.168464 44.865245 20.954400 -7.125000 0.000000 0.000000 -17.785100 76.749500 -13.315800 1.634841 14.464112 2.082481 87.945071 -0.353525 17.607654 -15.304295 29.646232 -4.382892 -1.109624 -2.348373 28.094148 -22.571539 3.899059 -2.797900 7.125000 0.000000 0.000000 2.951400 -22.728300 1.583900 
-14.792429 17.854725 0.349328 -34.440458 79.138927 -22.881715 0.179418 3.878316 1.304501 -12.243940 -3.314938 -9.766137 -0.413320 3.686371 11.701844 -0.402911 6.014708 -15.420715 1.841200 8.527200 24.327200 -5.791355 -4.216308 -0.827663 31.964001 14.945268 -7.079563 -0.813124 -3.241329 14.101724 0.122400 -2.552482 -8.015181 -0.079000 1.812800 -4.988600 8.404389 1.801191 -0.907407 1.939833 2.220292 -4.598436 -5.299484 0.980802 -0.615399 2.284834 -22.276787 -25.401256 -3.193449 -32.642622 35.038922 -7.779700 -12.746900 16.055900 -6.182411 -13.300860 1.304303 -80.820274 -1.288312 22.316595 16.311306 -25.518953 -7.384427 -2.935236 -0.393829 -8.129689 25.847722 44.688105 20.652600 -7.125000 0.000000 0.000000 -17.902900 76.484900 -13.307100 1.635077 14.417714 2.065633 87.837031 -0.172542 17.325184 -15.228259 29.540047 -4.379042 -1.095583 -2.361048 28.310736 -22.677229 3.519133 -2.659700 7.125000 0.000000 0.000000 2.848000 -23.126100 1.502400 
-14.752517 17.878143 0.395349 -39.372542 80.485985 -28.050625 0.282742 3.914910 1.328384 -12.083001 -3.201855 -9.721401 -0.371612 3.677057 11.692636 -0.279025 5.240198 -14.589678 1.445900 7.601400 21.509800 -5.703432 -4.213932 -0.856635 32.178147 14.780975 -5.679803 -0.609687 -2.807902 12.966534 0.332967 -4.385350 -8.694475 -0.052000 1.471600 -4.047400 8.029019 1.303352 -1.300729 2.062480 1.502054 -4.518316 -4.936623 0.635841 -0.085991 3.969369 -20.640418 -27.124405 -3.916549 -30.532557 34.019261 -8.066300 -11.928200 15.493100 -6.124274 -13.258183 1.254274 -80.924959 -1.377756 22.486912 16.294749 -25.529595 -7.365500 -2.938889 -0.381737 -8.033942 25.565491 44.612695 20.411800 -7.125000 0.000000 0.000000 -18.192900 76.320500 -13.463500 1.672110 14.398729 2.036950 87.680278 -0.036580 17.182382 -15.026013 29.332965 -4.346308 -1.112215 -2.348436 28.473881 -22.976372 3.468666 -2.676400 7.125000 0.000000 0.000000 2.636100 -23.163400 1.388100 
-14.704461 17.933836 0.436482 -51.524558 82.619163 -40.279217 0.505902 3.882196 1.294310 -12.012222 -3.543928 -9.807257 -0.306631 3.636143 11.698222 -0.104120 4.109739 -13.316121 0.892600 6.021700 16.847500 -5.489275 -4.264811 -0.800554 32.227715 14.909881 -3.883962 -0.286344 -2.170516 11.216293 0.726232 -7.503453 -9.933171 -0.020800 0.930600 -2.557900 7.615287 0.444636 -2.008904 2.213176 0.264704 -4.476581 -4.529688 0.002756 0.366549 3.398536 -20.039412 -24.882512 -0.283922 -29.595418 29.626144 -5.987500 -11.779000 13.674100 -6.098556 -13.275334 1.293846 -81.063323 -1.407565 22.564740 16.208069 -25.468670 -7.317586 -2.939798 -0.362764 -7.943895 25.425099 44.474979 20.253900 -7.125000 0.000000 0.000000 -18.103000 76.143900 -13.329800 1.739692 14.313394 2.073868 87.501239 0.023987 17.123055 -14.772473 29.087776 -4.311853 -1.150409 -2.326748 28.619921 -23.496791 3.576358 -2.790600 7.125000 0.000000 0.000000 2.280900 -23.009300 1.208800 
-14.792938 17.920905 0.247615 -37.054699 82.295379 -23.597135 0.071213 3.787656 1.162351 -13.978153 -5.448401 -12.149887 -0.414091 3.706807 11.801591 -0.928933 7.585957 -13.398003 0.399500 4.058100 11.240200 -5.809077 -4.201350 -0.728660 29.583592 14.123636 -9.343244 -0.680292 -3.080122 13.372363 0.244193 -3.812760 -8.629629 -0.046900 1.397700 -3.843900 8.594020 1.190588 -2.862351 1.667628 1.191448 -4.899443 -6.538579 0.421618 -0.280350 5.540475 -19.042519 -21.340900 1.111982 -27.936367 22.527275 -4.646600 -11.821100 9.829300 -6.034445 -13.298784 1.242226 -81.142841 -1.458937 22.960914 16.222668 -25.421683 -7.288554 -2.941212 -0.361810 -8.024373 25.483790 44.361552 20.259500 -7.125000 0.000000 0.000000 -17.751400 76.061900 -13.037300 1.722993 14.301595 2.007476 87.377262 0.158819 16.939647 -14.493613 28.910578 -4.247941 -1.149794 -2.324029 28.818695 -23.360837 3.389265 -2.690000 7.125000 0.000000 0.000000 2.372200 -23.226700 1.245400 
-14.832951 17.919684 0.170846 -27.806813 81.289294 -13.268371 -0.210043 3.625956 1.034950 -14.912173 -5.693963 -13.171777 -0.499928 3.580938 11.454817 -1.479699 9.844708 -13.271647 0.156300 2.547300 7.020800 -6.074716 -4.275353 -0.617454 28.487711 14.429400 -12.069964 -0.910300 -3.664397 14.752423 0.006159 -1.768903 -8.025448 -0.052600 1.479600 -4.069600 8.729758 2.030397 -3.152062 1.301542 2.320705 -5.056234 -7.916287 0.960519 -0.584618 15.491367 -15.874935 -15.265573 -7.050850 -23.908243 8.253118 -6.355900 -11.844700 1.195200 -5.665210 -13.531532 1.275759 -80.992072 -1.432650 23.792017 16.243750 -25.501260 -7.291288 -2.936995 -0.385368 -8.207447 25.602858 44.479754 20.393100 -7.125000 0.000000 0.000000 -17.838600 76.215400 -13.159000 2.027732 14.003255 1.859678 87.493259 0.232060 16.531459 -14.272940 28.698686 -4.157204 -1.119592 -2.314943 28.986146 -22.793916 3.111955 -2.488800 7.125000 0.000000 0.000000 2.767100 -23.595000 1.429800 
-14.826333 17.919989 0.170439 -26.922302 81.189600 -12.303179 -0.220484 3.623595 1.020688 -15.085454 -5.476005 -13.264899 -0.526116 3.496219 11.214633 -1.625059 10.379771 -12.956579 0.056600 1.534900 4.221900 -6.093450 -4.276165 -0.616418 28.390939 14.490145 -12.166763 -0.916105 -3.677438 14.776101 -0.007595 -1.665563 -8.037891 -0.047000 1.399700 -3.849300 8.685339 2.154218 -3.231119 1.220803 2.496492 -5.042033 -7.935931 1.032276 -0.452684 12.807126 -15.906498 -16.793097 -4.261786 -23.633883 11.710190 -5.672700 -11.299300 3.413900 -5.771210 -13.440483 1.244410 -80.992560 -1.426910 24.171057 16.225128 -25.484058 -7.283343 -2.939302 -0.394247 -8.182566 25.626230 44.606243 20.458500 -7.125000 0.000000 0.000000 -18.084700 76.339700 -13.389600 1.909365 14.083341 1.868070 87.447006 0.395209 16.324512 -14.068700 28.514317 -4.091536 -1.125589 -2.286026 29.149473 -22.571788 3.260573 -2.510300 7.125000 0.000000 0.000000 2.942500 -23.476400 1.528700 
-14.816763 17.919174 0.172068 -26.475629 81.153487 -11.812285 -0.220666 3.627151 1.015574 -15.220908 -5.223333 -13.375876 -0.541481 3.436494 11.043536 -1.735332 10.766957 -12.608319 0.006800 0.530600 1.457900 -6.106078 -4.278116 -0.613666 28.349858 14.528882 -12.153512 -0.909949 -3.656132 14.716021 -0.003481 -1.681012 -8.006316 -0.052200 1.474000 -4.054100 8.643729 2.159125 -3.286962 1.195198 2.512784 -5.061410 -7.840882 1.028632 -0.428642 10.229059 -15.869126 -18.160279 -1.858490 -23.408125 14.918171 -5.030000 -10.751300 5.469700 -5.860281 -13.388196 1.211073 -81.135316 -1.318272 24.155877 16.174757 -25.425971 -7.255557 -2.939790 -0.377823 -8.021313 25.592256 44.566888 20.415900 -7.125000 0.000000 0.000000 -18.041000 76.287400 -13.337300 1.817752 14.161526 1.887967 87.305840 0.357013 16.446813 -13.942372 28.402463 -4.040564 -1.126765 -2.265438 29.173782 -22.373063 3.385018 -2.526700 7.125000 0.000000 0.000000 3.098500 -23.376400 1.617000 
-14.787134 17.924163 0.185813 -26.653663 81.166485 -11.698721 -0.222363 3.613815 1.008679 -15.289547 -4.749458 -13.756572 -0.521312 3.497146 11.200142 -1.670970 10.496726 -12.578972 0.000000 0.044200 0.121400 -6.112660 -4.278476 -0.603318 28.382067 14.531987 -12.300046 -0.896326 -3.613162 14.578479 -0.006861 -1.633550 -7.966256 -0.055400 1.518900 -4.178000 8.514173 2.209224 -3.925121 1.211337 2.516790 -5.081390 -7.573092 1.041134 -0.139311 7.804846 -15.867746 -19.307172 0.225074 -23.310665 17.736252 -4.390500 -10.289200 7.297600 -5.944774 -13.355899 1.189245 -81.316553 -1.146235 24.218810 16.136525 -25.396738 -7.226178 -2.937089 -0.358822 -7.911095 25.566665 44.483994 20.361400 -7.125000 0.000000 0.000000 -17.888700 76.196600 -13.189500 1.757922 14.199498 1.917784 87.117122 0.199329 16.669554 -13.909662 28.366640 -4.019099 -1.104256 -2.275185 29.030322 -22.229326 3.166929 -2.419500 7.125000 0.000000 0.000000 3.190200 -23.623300 1.646900 
